<?xml version="1.0" standalone="no"?>
<!DOCTYPE svg PUBLIC "-//W3C//DTD SVG 1.1//EN" "http://www.w3.org/Graphics/SVG/1.1/DTD/svg11.dtd" >
<svg xmlns="http://www.w3.org/2000/svg">
<metadata></metadata>
<defs>
<font id="laudanumregular" horiz-adv-x="813" >
<font-face units-per-em="2048" ascent="1536" descent="-512" />
<missing-glyph horiz-adv-x="290" />
<glyph horiz-adv-x="0" />
<glyph horiz-adv-x="682" />
<glyph unicode=" "  horiz-adv-x="290" />
<glyph unicode="&#x09;" horiz-adv-x="290" />
<glyph unicode="&#xa0;" horiz-adv-x="290" />
<glyph unicode="!" horiz-adv-x="354" d="M82 6v178q0 6 6 6h178q6 0 6 -6v-178q0 -6 -6 -6h-178q-6 0 -6 6zM82 279v1146q0 7 6 7h178q6 0 6 -7v-1146q0 -7 -6 -7h-178q-6 0 -6 7z" />
<glyph unicode="&#x22;" horiz-adv-x="495" d="M41 1182v67v111v67q0 7 6 7h68h110q6 0 6 -7v-245q0 -6 -6 -6h-110h-68q-6 0 -6 6zM266 1182v67v111v67q0 7 6 7h68h111q6 0 6 -7v-245q0 -6 -6 -6h-111h-68q-6 0 -6 6z" />
<glyph unicode="#" horiz-adv-x="835" d="M41 6v178q0 6 6 6h72q6 0 6 7v370q0 6 -6 6h-72q-6 0 -6 7v165q0 7 6 7h72q6 0 6 6v407q0 19 4.5 46.5t22.5 70.5t47 78t84.5 60.5t128.5 25.5h96q63 0 113 -18t79.5 -48t50 -62t29 -66.5t12 -55t3.5 -33.5v-82q0 -7 -7 -10l-202 -100q-6 -3 -6 2v49q0 6 4 10l16 29 q1 2 2 5l1.5 4.5t0.5 2.5v86q-3 27 -12 47q-27 49 -84 49h-96q-55 0 -82 -49q-10 -23 -13 -47v-401q0 -6 7 -6h198q7 0 10 6l11 14q4 4 10 4h37q6 0 6 -6v-215q0 -6 -6 -6h-37q-4 0 -10 6l-11 14q-4 4 -10 4h-198q-7 0 -7 -6v-370q0 -7 7 -7h399q1 0 8 7l12 14q4 4 9 4h36 q7 0 7 -6v-203q0 -6 -7 -6h-741q-6 0 -6 6z" />
<glyph unicode="$" horiz-adv-x="751" d="M41 293v213q0 7 6 10l203 100q6 3 6 -2v-49q0 -1 -1 -5t-1 -5l-18 -29q-1 -2 -2 -5t-2 -4.5t-1 -2.5v-221q3 -25 13 -49q26 -47 84 -47h96q56 0 82 47q9 21 12 49v233q0 30 -33 52l-352 208q-92 51 -92 148v182q3 75 29 131q61 134 209 154q6 0 6 6v96q0 6 6 6h180 q6 0 6 -6v-96q0 -5 6 -8q58 -9 102.5 -38.5t67.5 -63.5t37 -73.5t17.5 -63t3.5 -38.5v-84q0 -8 -6 -8l-205 -102q-3 1 -4 4v47q0 10 2 12l18 29q2 2 2 10v86q-3 27 -12 47q-27 49 -82 49h-96q-57 0 -84 -49q-10 -23 -13 -47v-141q9 -38 39 -57l348 -207q93 -52 93 -148v-270 q-3 -63 -29 -127q-63 -135 -199 -156q-6 0 -6 -8v-88q0 -6 -6 -6h-180q-6 0 -6 6v88q0 6 -6 6q-147 17 -209 154q-26 56 -29 131z" />
<glyph unicode="%" horiz-adv-x="1523" d="M72 905v6v7v237v6v6q2 26 8.5 53t26 68t48.5 72t82 53.5t121 22.5h11q69 0 122.5 -22.5t82 -53t48 -72t25 -68.5t8.5 -53v-6v-6v-237v-13q-2 -26 -8 -52.5t-25.5 -68t-48 -72t-82 -53t-122.5 -22.5h-11q-68 0 -121 22.5t-82 53t-48.5 71.5t-26 68t-8.5 53zM217 6 l877 1424q0 4 8 4h211q8 0 4 -4l-877 -1424q0 -6 -8 -6h-211q-7 0 -4 6zM262 924q3 -26 12 -47q27 -48 84 -48h11q57 0 84 48q9 21 12 47v225q-3 27 -12 47q-27 49 -84 49h-11q-57 0 -84 -49q-9 -20 -12 -47v-225zM868 268v6v7v237v12q2 25 8.5 52.5t26.5 68.5t49 72 t82 53.5t121 22.5h10q68 0 121 -22.5t82 -53.5t49 -72t26.5 -68.5t8.5 -52.5v-6v-6v-237v-13q-2 -25 -8.5 -52.5t-26.5 -68.5t-49 -71.5t-82 -53t-121 -22.5h-10q-68 0 -121 22.5t-82 53t-49 71.5t-26.5 68.5t-8.5 52.5zM1059 287q3 -28 12 -49q27 -48 84 -48h10q57 0 84 48 q10 24 13 49v225q-3 24 -13 47q-29 47 -84 47h-10q-55 0 -84 -47q-9 -20 -12 -47v-225z" />
<glyph unicode="&#x26;" horiz-adv-x="919" d="M82 946v213q3 85 35 144q70 143 252 143h96q63 0 113 -18t79.5 -48t50 -62t29 -66.5t12 -55t3.5 -33.5v-84q0 -5 -7 -8l-184 -92l-18 -8q-6 -3 -6 2v47q0 4 1 8l1 4l18 29q4 4 4 12v86q-3 27 -12 47q-27 49 -84 49h-96q-55 0 -82 -49q-10 -23 -13 -47v-162q0 -10 2 -12 l281 -369q4 -4 4 2v207q0 6 6 6h181q6 0 6 -6v-456q0 -11 2 -13l78 -100q1 -2 2 -5l1.5 -4.5t0.5 -2.5v-260q0 -12 -4 0l-111 141q-4 4 -8 0q-69 -141 -248 -141h-96q-74 0 -130.5 26.5t-85 62t-46 80t-21.5 70.5t-4 43v291q0 22 5.5 54t33 86t72.5 89q4 4 0 11l-109 139 q-4 4 -4 10zM274 270q3 -25 13 -49q26 -47 84 -47h96q56 0 82 47q9 21 12 49v54q0 6 -4 10l-233 299q-2 1 -5 1t-4 -1q-30 -21 -36 -49q-7 -19 -5 -31v-283z" />
<glyph unicode="'" horiz-adv-x="190" d="M0 1249v178q0 7 6 7h178q6 0 6 -7v-245q0 -6 -6 -6h-110q-7 0 -11 4l-59 59q-4 4 -4 10z" />
<glyph unicode="(" horiz-adv-x="411" d="M42 718.5q0 421.5 136 827.5q0 6 8 6h179q7 0 4 -6q-137 -406 -137 -827.5t137 -827.5q6 -6 -4 -6h-179q-8 0 -8 6q-136 406 -136 827.5z" />
<glyph unicode=")" horiz-adv-x="409" d="M41 -109q137 406 137 827.5t-137 827.5q0 6 4 6h178q8 0 8 -6q137 -406 137 -827.5t-137 -827.5q0 -6 -8 -6h-178q-4 0 -4 6z" />
<glyph unicode="+" horiz-adv-x="1705" />
<glyph unicode="," horiz-adv-x="272" d="M41 6v178q0 6 6 6h178q6 0 6 -6v-245q0 -7 -6 -7h-110q-6 0 -11 5l-59 59q-4 4 -4 10z" />
<glyph unicode="-" horiz-adv-x="663" d="M61 682v180q0 6 7 6h528q6 0 6 -6v-180q0 -6 -6 -6h-528q-7 0 -7 6z" />
<glyph unicode="." horiz-adv-x="272" d="M41 6v178q0 6 6 6h178q6 0 6 -6v-178q0 -6 -6 -6h-178q-6 0 -6 6z" />
<glyph unicode="/" horiz-adv-x="1062" d="M-18 6l876 1424q0 4 8 4h211q8 0 4 -4l-874 -1424q-3 -6 -10 -6h-211q-7 0 -4 6z" />
<glyph unicode="0" horiz-adv-x="833" d="M82 268v897q0 13 3.5 33.5t12 55t29 66.5t50 62t79.5 48t113 18h96q63 0 113 -18t79.5 -48t50 -62t29 -66.5t12 -55t3.5 -33.5v-897q0 -17 -4 -43t-21.5 -70.5t-46 -80t-85 -62t-130.5 -26.5h-96q-74 0 -130.5 26.5t-85 62t-46 80t-21.5 70.5t-4 43zM272 272 q3 -25 13 -49q26 -47 84 -47h96q56 0 82 47q9 21 12 49v457q0 4 -2 2l-278 -346l-5 -4q-2 0 -2 -6v-103zM272 690q0 -12 4 0l281 344q2 2 2 13v114q-3 27 -12 47q-27 49 -82 49h-96q-57 0 -84 -49q-10 -23 -13 -47v-471z" />
<glyph unicode="1" horiz-adv-x="473" d="M84 1249l90 178q0 7 8 7h178q7 0 7 -7v-1355q0 -3 6 -9l14 -12q4 -4 4 -8v-37q0 -6 -6 -6h-227q-6 0 -6 6v37q0 5 6 8l14 12q4 4 4 9v1165q0 6 -6 6h-82q-7 0 -4 6z" />
<glyph unicode="2" horiz-adv-x="835" d="M82 6v574v6v6q0 98 92 149l348 205q39 26 39 58l-2 157q-3 27 -12 47q-27 49 -82 49h-96q-57 0 -84 -49q-10 -23 -13 -47v-88q0 -6 4 -10l17 -29l4 -12v-47q0 -4 -6 -4l-203 102q-6 3 -6 8v84q0 13 3.5 33.5t12 55t29 66.5t50 62t79.5 48t113 18h96q173 0 250 -143 q31 -67 37 -144v-192q3 -3 0 -27t-26 -62.5t-67 -64.5l-352 -209q-33 -22 -33 -51v-12v-346q0 -7 7 -7h274q6 0 6 7v282q0 1 -4 13l-16 28q-4 4 -4 12v48q0 5 6 2l205 -101q4 -4 4 -8v-467q0 -6 -7 -6h-657q-6 0 -6 6z" />
<glyph unicode="3" horiz-adv-x="833" d="M82 266v205q0 7 6 10l205 101q4 4 4 -2v-50q0 -8 -2 -10l-19 -28q-2 -2 -2 -13v-207q3 -25 13 -49q26 -47 82 -47h96q58 0 84 47q9 21 12 49v263q-3 27 -12 47q-27 49 -84 49h-90q-6 0 -6 6v178q0 6 6 6h90q58 0 84 47q9 20 12 50l-2 243q-3 27 -12 47q-29 47 -82 47h-96 q-55 0 -84 -47q-10 -23 -13 -47v-88q0 -6 4 -10l17 -29l4 -12v-47q0 -4 -6 -4l-203 102q-6 3 -6 8v84q0 13 3.5 33.5t12 55t29 66.5t50 62t79.5 48t113 18h96q57 0 104 -15.5t76 -39t50.5 -55.5t32 -59.5t16.5 -56.5t7 -41.5t1 -19.5v-243q0 -30 -9 -64q-15 -73 -53 -123 q-3 -3 0 -10q38 -50 53 -125q9 -34 9 -61v-259v-12q0 -19 -4.5 -46t-22.5 -70.5t-47 -78t-84.5 -60t-128.5 -25.5h-96q-74 0 -130.5 26.5t-85 62t-46 80t-21.5 70.5t-4 43z" />
<glyph unicode="4" horiz-adv-x="839" d="M41 1391v36q0 7 6 7h227q7 0 7 -7v-36q0 -7 -7 -11l-14 -10q-4 -4 -4 -10v-526q3 -27 12 -48q26 -47 84 -47h185q6 0 6 6v615q0 6 -4 10l-15 10q-6 6 -6 11v36q0 7 6 7h228q6 0 6 -7v-36q0 -7 -4 -11l-15 -10q-4 -4 -4 -10v-1288q0 -5 4 -9l15 -12q4 -4 4 -8v-37 q0 -6 -6 -6h-228q-6 0 -6 6v37q0 2 6 8l15 12q4 4 4 9v469q0 6 -6 6h-185q-182 0 -252 143q-31 57 -34 144v526q0 6 -7 10l-14 10q-4 4 -4 11z" />
<glyph unicode="5" horiz-adv-x="833" d="M82 268v203q0 8 6 8l205 103q6 6 6 -4v-48l-4 -12l-19 -29q0 -1 -1 -5t-1 -5v-207q3 -25 13 -49q26 -47 84 -47h94q58 0 84 47q9 21 12 49v277q-3 27 -12 47q-27 49 -84 49h-96q-182 0 -252 143q-32 59 -35 144v495q0 7 6 7h657q7 0 7 -7v-360q0 -4 -4 -8l-205 -103 q-6 0 -6 5v47q0 8 4 12l16 29q4 4 4 12v176q0 6 -6 6h-276q-7 0 -7 -6v-305q3 -25 13 -49q26 -47 84 -47h96q172 0 250 -144q31 -67 37 -143v-277q-6 -76 -37 -143q-77 -143 -250 -143h-94q-54 0 -99.5 14t-74.5 35.5t-51.5 50.5t-34 56t-18.5 55t-9 44t-2 27z" />
<glyph unicode="6" horiz-adv-x="833" d="M82 272v889q0 7 1 19t7 41.5t16 57t31.5 59.5t50.5 55.5t76 39t105 15.5h96q72 0 126.5 -25t82.5 -56.5t47 -77.5t23.5 -68.5t7.5 -49.5v-12v-78q0 -5 -7 -8l-204 -102q-4 0 -4 4v47q0 10 2 12l18 29q2 2 2 10v88q-3 27 -12 47q-27 49 -82 49h-96q-57 0 -84 -49 q-10 -23 -13 -47v-250q0 -4 7 -4q33 10 90 13l102 -2q94 0 155.5 -42.5t90.5 -103.5q32 -69 35 -141v-359q-6 -76 -37 -143q-77 -143 -250 -143h-96q-182 0 -252 143q-32 60 -35 143zM272 272q3 -25 13 -49q26 -47 84 -47h96q50 0 72 31.5t22 58.5v13v346v12q0 28 -21.5 59 t-72.5 31h-96q-57 0 -84 -49q-10 -23 -13 -47v-94v-265z" />
<glyph unicode="7" horiz-adv-x="798" d="M41 6l432 1231q6 6 -4 6h-317q-6 0 -9 -6l-12 -14q-4 -4 -8 -4h-37q-6 0 -6 6v18v184q0 7 6 7h657q5 0 5 -7l-500 -1421q-3 -6 -8 -6h-195q-4 0 -4 6z" />
<glyph unicode="8" horiz-adv-x="833" d="M82 272v357q0 30 8 61q15 75 53 125q3 7 0 10q-38 50 -53 123q-8 31 -8 64v149q3 73 35 142q29 62 89.5 103.5t155.5 41.5h13h45h2h2h37h12q93 0 154 -42t90 -103q32 -69 35 -142v-149q0 -30 -9 -64q-15 -73 -53 -123q-3 -3 0 -10q38 -50 53 -125q9 -34 9 -61v-357 q-6 -76 -37 -143q-77 -143 -250 -143h-41h-4h-51q-182 0 -252 143q-32 60 -35 143zM272 272q3 -25 13 -49q26 -47 84 -47h96q58 0 84 47q9 21 12 49v357q-3 27 -12 47q-9 15 -16.5 23.5t-23.5 16.5t-38 9h-109q-59 -3 -79 -49q-11 -26 -11 -47v-357zM272 1012q0 -21 11 -47 q19 -47 79 -50h109q32 1 48.5 14t29.5 36q9 21 12 47v149q-3 27 -12 47q-27 49 -84 49h-96q-57 0 -84 -49q-10 -23 -13 -47v-149z" />
<glyph unicode="9" horiz-adv-x="833" d="M82 268v84q0 5 6 8l203 101q6 3 6 -2v-47q0 -4 -1 -8t-1 -5l-19 -28q-4 -4 -4 -13v-86q3 -25 13 -49q26 -47 84 -47h96q58 0 84 47q9 21 12 49v246q0 4 -6 4q-52 -10 -90 -10h-103q-95 0 -155.5 41.5t-89.5 103.5q-32 69 -35 142v362q3 85 35 144q70 143 252 143h96 q173 0 250 -143q31 -67 37 -144v-889q0 -7 -1 -19.5t-7 -41.5t-16.5 -56t-32 -59t-50.5 -55.5t-76 -39t-104 -15.5h-96q-74 0 -130.5 26.5t-85 62t-46 80t-21.5 70.5t-4 43zM272 799q3 -25 13 -49q27 -48 84 -48h96q57 0 84 48q9 21 12 49v362q-3 27 -12 47q-27 49 -84 49 h-96q-57 0 -84 -49q-10 -23 -13 -47v-362z" />
<glyph unicode=":" horiz-adv-x="272" d="M41 6v2v111v67q0 7 6 7h68h110q6 0 6 -7v-180q0 -6 -6 -6h-178q-6 0 -6 6zM41 743v2v111v68q0 6 6 6h68h110q6 0 6 -6v-181q0 -6 -6 -6h-178q-6 0 -6 6z" />
<glyph unicode=";" horiz-adv-x="272" d="M41 -55v245q0 7 6 7h178q6 0 6 -7v-178q0 -6 -4 -10l-59 -59q-4 -4 -10 -4h-111q-6 0 -6 6zM41 743v2v111v68q0 6 6 6h68h110q6 0 6 -6v-181q0 -6 -6 -6h-178q-6 0 -6 6z" />
<glyph unicode="?" d="M72 946v213v6v6q2 18 4 32t11 45t20.5 54t33.5 52.5t50 48.5t71.5 32t95.5 13h97q75 0 132 -27.5t85 -63.5t45 -81t20.5 -70.5t3.5 -42.5v-370q0 -17 -4 -43t-20.5 -67t-43 -75.5t-76.5 -61.5t-116 -32q-6 0 -6 -8v-227q0 -7 -6 -7h-180q-6 0 -6 7v419q0 7 6 7h172 q33 0 54.5 19t27.5 37t6 32v368q-3 27 -12 47q-27 49 -82 49h-97q-57 0 -84 -49q-9 -20 -12 -47v-147q0 -7 6 -10l15 -11q4 -4 4 -10v-37q0 -6 -6 -6h-203q-6 0 -6 6zM283 6v180q0 7 6 7h180q6 0 6 -7v-180q0 -6 -6 -6h-180q-6 0 -6 6z" />
<glyph unicode="@" horiz-adv-x="1476" d="M59 160q-2 2 0 2q46 -28 80 -39q34 -15 84 -25q76 -13 170 0q66 10 168 43q75 24 170 62q87 36 168 57q102 29 170 31q47 3 84 -4q35 -5 84 -19q42 -16 86 -41q45 -27 80 -59q1 -2 0 -2t-2 2q-53 29 -78 37q-29 13 -86 24q-47 7 -84 7q-33 0 -84 -7q-76 -11 -170 -43 q-102 -33 -168 -61q-76 -30 -170 -57q-98 -28 -168 -31q-102 -4 -170 24q-17 4 -84 39q-42 25 -80 60zM59 1260v2q46 -28 80 -39q52 -17 84 -23q36 -8 84 -8q43 0 86 6q66 10 168 43q75 24 170 62q90 36 168 59q94 26 170 29q77 6 168 -23q35 -11 86 -41q42 -23 80 -59 q1 -2 0 -2t-2 2q-37 24 -78 39q-53 17 -86 22q-76 14 -168 2q-72 -13 -170 -43q-80 -26 -168 -63q-84 -34 -170 -58q-83 -24 -168 -30q-65 0 -86 4q-71 16 -84 20q-43 15 -84 39q-31 19 -80 60zM85.5 1365.5q0.5 0.5 4.5 -1.5l45 -16q8 -3 24.5 -7.5t24.5 -7.5l52 -8l51 -4 q47 0 100 6q47 5 100 19q62 14 101 26l102 31l101 27l51 8q21 6 43 6q4 0 2 -2l-45 -25l-51 -26q-59 -32 -101 -50q-38 -18 -102 -43q-55 -19 -101 -30q-49 -12 -100 -15q-54 -3 -100 9q-27 3 -51 12q-38 14 -52 22q-13 7 -49 29q-8 7 -23.5 18.5t-23.5 18.5q-3 3 -2.5 3.5z M338 203v20q0 4 2 6l18 15v2q0 1 1 2t1 2q51 242 156 803q4 4 4 6q52 12 105 33q4 0 4 -2q31 -138 155 -721l4 -4q17 -9 19 -9q0 -1 1 -3t1 -3v-20q0 -4 -4 -4l-146 -56q-4 0 -4 2v21q0 1 1 4t1 4l15 18q2 2 2 7q-3 12 -7.5 35.5t-7.5 35.5h-4q-103 -34 -163 -49 q-5 -5 -5 -6q-3 -13 -7 -39t-7 -39v-6q3 -3 8 -5t8 -5q0 -1 1.5 -3t1.5 -3v-21q0 -4 -5 -4q-73 -18 -145 -18q-4 0 -4 4zM508 446q-4 -4 2 -4q6 2 54 17t73 24q2 0 2 4l-66 306zM575 -16q8 6 26.5 16t19.5 10l51 25q42 23 100 51l100 41q60 23 103 31q58 14 100 14 q52 3 101 -6q8 -3 25.5 -7t25.5 -7q28 -10 49 -21q22 -8 51 -31q28 -20 45 -37q2 -2 0 -2q-2 1 -19.5 8t-25.5 9q-8 3 -25.5 7t-25.5 7t-49 8q-32 4 -51 4q-52 0 -101 -6t-100 -18q-21 -4 -103 -27q-38 -9 -100 -28q-45 -14 -100 -27q-17 -6 -51 -10l-46 -6v2zM762 1020v10 v109q0 4 4 4q13 4 60.5 21.5t74.5 25.5q41 15 111 29q75 13 135 10q4 0 4 -4v-109v-10q0 -2 -4 -2h-21h-4q-2 0 -2 2l-6 8q-4 4 -6 4q-61 -4 -92 -10q-4 0 -4 -4v-676q0 -4 2 -6q4 0 8 -4t4 -6v-21q0 -4 -4 -4q-8 0 -10 -2q-14 -2 -111 -27q-9 -3 -10 -4q-4 0 -4 2v21 q0 6 2 8q3 1 4.5 2.5t2 3t1.5 2.5q4 4 4 6v676q0 6 -4 2q-18 -5 -50 -15.5t-44 -14.5q-2 0 -2 -3q0 -2 -2 -2l-6 -12q-4 -4 -7 -4q-5 -1 -11.5 -4t-8.5 -4q-4 0 -4 2z" />
<glyph unicode="A" horiz-adv-x="888" d="M39 6v37q0 1 0.5 2t1.5 3.5t2 4.5l31 23q4 4 6 10l268 1341q0 7 6 7h181q6 0 6 -7l268 -1341q0 -2 6 -8l31 -25q1 -2 2 -4.5t1.5 -3.5t0.5 -2v-37q0 -6 -6 -6h-252q-6 0 -6 6v37q0 6 4 10l24 23q4 4 4 10l-26 131q0 6 -6 6h-283q-6 0 -6 -6l-27 -131q0 -6 4 -10l25 -23 q4 -4 4 -10v-37q0 -6 -6 -6h-252q-6 0 -6 6zM330 385q0 -4 6 -4h217q6 0 6 4l-113 565q-1 1 -2 1l-2 -1z" />
<glyph unicode="B" horiz-adv-x="845" d="M92 6v37q0 4 4 8l15 12q6 3 6 9v1288q0 7 -6 10l-15 10q-4 4 -4 11v36q0 7 6 7h400q172 0 250 -144q30 -65 36 -143v-191q0 -32 -8 -63q-15 -73 -53 -123q-3 -7 0 -10q38 -53 53 -125q8 -31 8 -62v-307q-3 -70 -30 -129q-61 -129 -219 -137h-437q-6 0 -6 6zM307 197 q0 -7 6 -7h207q45 0 64 27q6 8 10 29v340q-3 27 -12 47q-27 49 -84 49h-185q-6 0 -6 -6v-479zM307 866q0 -6 6 -6h185q58 0 84 47q9 21 12 49v191q-3 27 -12 47q-27 49 -84 49h-185q-6 0 -6 -6v-371z" />
<glyph unicode="C" horiz-adv-x="800" d="M72 262v909q2 18 4 32t11 45t20.5 54t33.5 52.5t50 48.5t71.5 32t95.5 13h95q75 0 132 -27t85 -62t45 -80t20.5 -70.5t3.5 -43.5v-219q0 -6 -6 -6h-184h-19q-6 0 -6 6v37q0 7 6 10l15 11q4 4 4 10v147q-3 27 -12 47q-27 49 -84 49h-95q-57 0 -84 -49q-9 -20 -12 -47v-889 q3 -28 12 -49q26 -47 84 -47h95q58 0 84 47q9 21 12 49v289q0 6 -4 10l-17 29q-1 2 -2 5l-1.5 4.5t-0.5 2.5v47q0 11 6 5l19 -9l184 -92q6 -3 6 -10v-287v-12q-2 -26 -8.5 -53.5t-26 -68.5t-48.5 -71.5t-82 -52.5t-121 -22h-95q-52 0 -95.5 13t-71.5 32t-50 48t-33.5 52.5 t-20.5 54t-11 44.5t-4 32z" />
<glyph unicode="D" horiz-adv-x="856" d="M92 6v37q0 4 4 8l15 12q6 3 6 9v1288q0 7 -6 10l-15 10q-4 4 -4 11v36q0 7 6 7h396h12q73 -2 127.5 -29.5t82 -62.5t44.5 -79.5t20.5 -69.5t3.5 -42v-868q0 -18 -3.5 -43.5t-20.5 -70.5t-45 -80t-85 -62t-132 -27h-400q-6 0 -6 6zM307 197q0 -7 6 -7h185q57 0 84 48 q9 21 12 49v860q-3 27 -12 47q-27 49 -84 49h-185q-6 0 -6 -6v-1040z" />
<glyph unicode="E" horiz-adv-x="866" d="M92 6v37q0 4 4 8l15 12q6 3 6 9v1288q0 7 -6 10l-15 10q-4 4 -4 11v36q0 7 6 7h680q6 0 6 -7v-184v-18q0 -6 -6 -6h-35q-6 0 -10 4l-10 14q-6 6 -10 6h-400q-6 0 -6 -6v-371q0 -6 6 -6h279q6 0 10 4l10 15q6 6 11 6h36q7 0 7 -6v-215q0 -7 -7 -7h-36q-7 0 -11 7l-10 12 q-3 6 -10 6h-279q-6 0 -6 -6v-479q0 -7 6 -7h400q7 0 10 7l10 14q4 4 10 4h35q6 0 6 -6v-203q0 -6 -6 -6h-680q-6 0 -6 6z" />
<glyph unicode="F" horiz-adv-x="845" d="M92 6v37q0 4 4 8l15 12q6 3 6 9v1171v117q0 7 -6 10l-15 10q-4 4 -4 11v36q0 7 6 7h680q6 0 6 -7v-202q0 -6 -6 -6h-35q-6 0 -10 4l-10 14q-6 6 -10 6h-400q-6 0 -6 -6v-371q0 -6 6 -6h279q6 0 10 4l10 15q6 6 11 6h36q7 0 7 -6v-215q0 -7 -7 -7h-36q-7 0 -11 7l-10 12 q-3 6 -10 6h-279q-6 0 -6 -6v-604q0 -5 4 -9l15 -12q6 -3 6 -8v-37q0 -6 -6 -6h-228q-6 0 -6 6z" />
<glyph unicode="G" d="M72 270v910q0 14 3 34.5t12 55.5t29.5 66.5t50 61t79 47t112.5 17.5h97q64 0 114.5 -18.5t80 -49.5t49.5 -63.5t28 -67.5t11 -54t3 -31v-215q0 -7 -6 -7h-203q-6 0 -6 7v34q0 7 4 11l15 10q4 4 4 10v148q-3 27 -12 47q-27 49 -82 49h-97q-57 0 -84 -49q-9 -20 -12 -47 v-904q3 -28 12 -49q26 -47 84 -47h97q56 0 82 47q9 21 12 49v404q0 6 -6 6h-111q-8 0 -8 4l-84 168q-3 6 4 6h391q6 0 6 -6v-848q0 -6 -6 -6h-35q-8 0 -8 6l-30 51q-3 6 -7 2q-73 -73 -200 -73h-97q-76 0 -133.5 28t-85 64t-44.5 82t-20 70t-3 40z" />
<glyph unicode="H" horiz-adv-x="901" d="M92 6v37q0 6 4 10l15 10q6 3 6 11v1286q0 7 -6 10l-15 10q-4 4 -4 11v36q0 7 6 7h228q6 0 6 -7v-36q0 -8 -6 -11l-15 -10q-4 -4 -4 -10v-494q0 -6 6 -6h275q6 0 6 6v494q0 6 -4 10l-15 10q-6 3 -6 11v36q0 7 6 7h228q6 0 6 -7v-36q0 -7 -4 -11l-14 -10q-7 -4 -7 -10 v-1286q0 -8 7 -11l14 -10q4 -4 4 -10v-37q0 -6 -6 -6h-228q-6 0 -6 6v37q0 7 6 10l15 10q4 4 4 11v602q0 6 -6 6h-275q-6 0 -6 -6v-602q0 -7 4 -11l15 -10q6 -3 6 -10v-37q0 -6 -6 -6h-228q-6 0 -6 6z" />
<glyph unicode="I" horiz-adv-x="423" d="M92 6v37q0 6 4 10l15 10q6 3 6 11v1286q0 7 -6 10l-15 10q-4 4 -4 11v36q0 7 6 7h228q6 0 6 -7v-36q0 -8 -6 -11l-15 -10q-4 -4 -4 -10v-1286q0 -7 4 -11l15 -10q6 -3 6 -10v-37q0 -6 -6 -6h-228q-6 0 -6 6z" />
<glyph unicode="J" horiz-adv-x="823" d="M51 272v570q0 5 6 8l203 102q6 0 6 -4v-47l-4 -12l-16 -29q-4 -4 -4 -10v-578q3 -28 12 -49q26 -47 84 -47h92q58 0 84 47q9 21 12 49v1088q0 6 -4 10l-14 10q-6 3 -6 11v36q0 7 6 7h227q6 0 6 -7v-36q0 -7 -4 -11l-14 -10q-6 -3 -6 -10v-1090q0 -9 -1.5 -23.5t-8 -43.5 t-17 -56t-32.5 -57t-51 -52.5t-75 -37t-102 -14.5h-92q-182 0 -252 143q-32 60 -35 143z" />
<glyph unicode="K" horiz-adv-x="880" d="M92 6v37q0 6 4 10l15 10q6 3 6 11v1286q0 7 -6 10l-15 10q-4 4 -4 11v36q0 7 6 7h228q6 0 6 -7v-36q0 -8 -6 -11l-15 -10q-4 -4 -4 -10v-461q0 -5 1 -5t1 5l273 467q3 5 -2 10l-5 4q-4 4 -4 11v36q0 7 7 7h235q6 0 6 -7v-36q0 -7 -4 -11q-8 -5 -29 -22.5t-26 -20.5 q-6 -6 -6 -8l-238 -430q-2 -2 -2 -12l289 -803q0 -4 6 -10l27 -21q4 -4 4 -10v-37q0 -6 -6 -6h-236q-6 0 -6 6v37q0 6 4 10l14 15q5 5 2 8l-215 598q0 6 -4 2l-84 -152q0 -1 -1 -5t-1 -5v-440q0 -7 4 -11l15 -10q6 -3 6 -10v-37q0 -6 -6 -6h-228q-6 0 -6 6z" />
<glyph unicode="L" horiz-adv-x="845" d="M102 6v37q0 6 4 10l15 10q6 3 6 11v1286q0 7 -6 10l-15 10q-4 4 -4 11v36q0 7 7 7h227q6 0 6 -7v-36q0 -8 -6 -11l-14 -10q-5 -5 -5 -10v-1163q0 -7 7 -7h399q7 0 10 7l10 14q4 4 11 4h34q7 0 7 -6v-203q0 -6 -7 -6h-679q-7 0 -7 6z" />
<glyph unicode="M" horiz-adv-x="1091" d="M92 6v37q0 4 4 8l15 12q6 3 6 9v1288q0 7 -6 10l-15 10q-4 4 -4 11v36q0 7 6 7h203q5 0 8 -7l234 -526q3 -3 6 0l233 526q4 7 9 7h202q6 0 6 -7v-36q0 -7 -4 -11l-14 -10q-4 -4 -4 -10v-1288q0 -5 4 -9l14 -12q4 -4 4 -8v-37q0 -6 -6 -6h-225q-6 0 -6 6v37q0 4 4 8l14 12 q4 4 4 9v907q0 2 -2 0l-233 -526q-3 -3 -6 0l-234 526q-2 2 -2 0v-907q0 -5 4 -9l15 -12q6 -3 6 -8v-37q0 -6 -6 -6h-228q-6 0 -6 6z" />
<glyph unicode="N" horiz-adv-x="997" d="M92 6v37q0 4 4 8l15 12q6 3 6 9v1290q0 5 -6 8l-15 12q-4 4 -4 9v36q0 7 6 7h203q5 0 8 -7l379 -923q0 -2 1 -2t1 4v856q0 5 -6 8l-14 12q-4 4 -4 9v36q0 7 6 7h227q6 0 6 -7v-36q0 -6 -6 -9l-14 -12q-4 -4 -4 -8v-1290q0 -5 4 -9l14 -12q6 -3 6 -8v-37q0 -6 -6 -6h-203 q-8 0 -8 6l-379 924q-2 2 -2 -2v-856q0 -5 4 -9l15 -12q6 -3 6 -8v-37q0 -6 -6 -6h-228q-6 0 -6 6z" />
<glyph unicode="O" d="M72 268v897q0 11 2 27t9 44t18.5 55t33.5 56.5t50.5 51t73.5 35.5t99 14h97q54 0 99 -14t73.5 -35.5t50.5 -51t33.5 -56.5t18.5 -55t9 -44t2 -27v-897q0 -11 -2 -27t-9 -44t-18.5 -55t-33.5 -56t-50.5 -50.5t-73.5 -35.5t-99 -14h-97q-54 0 -99 14t-73.5 35.5t-50.5 50.5 t-33.5 56t-18.5 55t-9 44t-2 27zM262 272q3 -28 12 -49q26 -47 84 -47h97q56 0 82 47q9 21 12 49v889q-3 27 -12 47q-27 49 -82 49h-97q-57 0 -84 -49q-9 -20 -12 -47v-889z" />
<glyph unicode="P" horiz-adv-x="825" d="M92 6v37q0 4 4 8l15 12q6 3 6 9v1288q0 7 -6 10l-15 10q-4 4 -4 11v36q0 7 6 7h400q172 0 250 -144q30 -65 36 -143v-574q-6 -78 -36 -143q-77 -143 -250 -143h-185q-6 0 -6 -6v-209q0 -5 4 -9l15 -12q6 -3 6 -8v-37q0 -6 -6 -6h-228q-6 0 -6 6zM307 483q0 -6 6 -6h185 q58 0 84 47q9 21 12 49v574q-3 27 -12 47q-27 49 -84 49h-185q-6 0 -6 -6v-754z" />
<glyph unicode="Q" d="M72 268v897q0 11 2 27t9 44t18.5 55t33.5 56.5t50.5 51t73.5 35.5t99 14h97q54 0 99 -14t73.5 -35.5t50.5 -51t33.5 -56.5t18.5 -55t9 -44t2 -27v-897q0 -18 -5 -44.5t-19 -68t-48 -81t-83 -62.5q-6 -3 0 -6q24 -14 44.5 -19t47.5 3.5t55 34.5q6 6 6 -2v-199q0 -4 -6 -10 q-37 -20 -69 -20q-2 -1 -3 -1q-31 0 -54 14q-24 14 -46 34.5t-43 40.5t-43.5 34t-51 12.5t-61.5 -22.5q-4 -4 -4 2v72q0 6 -6 6q-73 2 -128 29t-82.5 62t-44.5 78.5t-21 69t-4 43.5zM262 272q3 -28 12 -49q26 -47 84 -47h97q56 0 82 47q9 21 12 49v889q-3 27 -12 47 q-27 49 -82 49h-97q-57 0 -84 -49q-9 -20 -12 -47v-889z" />
<glyph unicode="R" horiz-adv-x="839" d="M72 6v37q0 4 4 8l14 12q6 3 6 9v1288q0 7 -6 10l-14 10q-4 4 -4 11v36q0 7 6 7h436q158 -8 219 -138q28 -61 31 -129v-307q0 -32 -8 -63q-15 -71 -54 -123q-3 -3 0 -10q37 -49 54 -119q8 -24 8 -56v-417q0 -6 6 -9l14 -12q4 -4 4 -8v-37q0 -6 -6 -6h-202q-7 0 -7 6v483 q-4 28 -12 48q-27 49 -84 49h-94h-90q-6 0 -6 -6v-508q0 -5 4 -9l14 -12q6 -3 6 -8v-37q0 -6 -6 -6h-227q-6 0 -6 6zM287 770q0 -6 6 -6h90h94q58 0 84 47q9 21 12 49v328q-3 17 -10 26q-21 29 -63 29h-207q-6 0 -6 -6v-467z" />
<glyph unicode="S" horiz-adv-x="792" d="M61 272v248q0 6 7 10l186 93l18 8q4 4 4 -2v-49q0 -9 -2 -11l-18 -28q-2 -2 -2 -13v-256q3 -28 12 -49q26 -47 82 -47h96q58 0 84 47q10 24 13 49l-2 269q0 29 -33 51l-352 209q-93 52 -93 147v213q3 85 35 144q70 143 252 143h96q63 0 113 -18t79.5 -48t50 -62t29 -66.5 t12 -55t3.5 -33.5v-84q0 -5 -6 -8l-184 -92l-19 -8q-6 -3 -6 2v47q0 4 1 8l1 4l19 29q4 4 4 12v86q-3 24 -13 47q-27 49 -84 49h-96q-55 0 -82 -49q-9 -20 -12 -47v-170q0 -36 39 -59l346 -207q92 -51 92 -147v-306q-6 -76 -37 -143q-77 -143 -250 -143h-96q-182 0 -252 143 q-32 60 -35 143z" />
<glyph unicode="T" horiz-adv-x="772" d="M51 1225v18v184q0 7 6 7h234h190h234q6 0 6 -7v-184v-18q0 -6 -6 -6h-37q-6 0 -10 4l-11 14q-6 6 -10 6h-160q-6 0 -6 -6v-1165q0 -5 4 -9l15 -12q6 -3 6 -8v-37q0 -6 -6 -6h-19h-190h-19q-6 0 -6 6v37q0 4 4 8l15 12q6 3 6 9v1165q0 6 -6 6h-162q-2 0 -8 -6l-13 -14 q-4 -4 -8 -4h-37q-6 0 -6 6z" />
<glyph unicode="U" horiz-adv-x="860" d="M72 1391v36q0 7 6 7h227q6 0 6 -7v-36q0 -8 -6 -11l-14 -10q-4 -4 -4 -10v-1088q3 -28 12 -49q26 -47 84 -47h94q58 0 84 47q9 21 12 49v1088q0 6 -4 10l-14 10q-6 3 -6 11v36q0 7 6 7h227q6 0 6 -7v-36q0 -7 -4 -11l-14 -10q-6 -3 -6 -10v-1090q0 -16 -3 -40t-20 -70 t-45 -82t-85.5 -64t-133.5 -28h-94q-55 0 -100 14t-74 35.5t-51 50.5t-33.5 56t-18.5 55t-8.5 44t-1.5 27v1092q0 7 -6 10l-14 10q-4 4 -4 11z" />
<glyph unicode="V" horiz-adv-x="847" d="M18 1391v36q0 7 7 7h202q5 0 9 -7l188 -944h2l188 944q0 7 9 7h200q6 0 6 -7v-36q0 -7 -4 -11l-30 -22q-4 -4 -4 -10l-269 -1342q-3 -6 -8 -6h-178q-8 0 -8 6l-269 1342q0 2 -6 8l-30 24q-5 5 -5 11z" />
<glyph unicode="W" horiz-adv-x="1280" d="M18 1391v36q0 7 7 7h251q7 0 7 -7v-36q0 -7 -4 -11l-25 -22q-4 -4 -4 -10l174 -865q0 -2 2 0l117 588v12l-54 267q0 4 -6 10l-26 20q-4 4 -4 11v36q0 7 6 7h248q6 0 6 -7v-36q0 -7 -4 -11l-25 -22q-6 -6 -2 -10l172 -865h2l174 865q0 6 -4 10l-22 22q-5 5 -5 11v36 q0 7 7 7h249q7 0 7 -7v-36q0 -7 -7 -11l-28 -22q-6 -3 -6 -10l-269 -1342q-3 -6 -8 -6h-178q-5 0 -8 6l-117 586q0 4 -1 4t-1 -4l-117 -586q-3 -6 -8 -6h-178q-8 0 -8 6l-269 1342q0 2 -6 8l-30 24q-5 5 -5 11z" />
<glyph unicode="X" horiz-adv-x="1001" d="M59 6v37q0 4 4 8l50 41q6 6 6 8l284 688q4 4 0 11l-221 534q0 2 -6 8l-49 39q-4 4 -4 11v36q0 7 6 7h250q6 0 6 -7v-36q0 -7 -4 -11l-14 -12q-2 -2 -2 -10l135 -326q4 -12 4 0l135 326q3 5 -2 10l-14 12q-5 5 -5 11v36q0 7 7 7h249q7 0 7 -7v-36q0 -7 -4 -11l-50 -39 q-6 -6 -6 -8l-221 -534v-11l285 -688l6 -8l49 -41q4 -4 4 -8v-37q0 -6 -6 -6h-250q-6 0 -6 6v37q0 6 4 10l14 13q5 5 2 10l-198 479q0 12 -4 0l-199 -479q0 -8 2 -10l14 -13q5 -5 5 -10v-37q0 -6 -7 -6h-249q-7 0 -7 6z" />
<glyph unicode="Y" horiz-adv-x="794" d="M18 1391v36q0 7 7 7h249q7 0 7 -7v-36q0 -6 -5 -11l-14 -12q-2 -2 -2 -10l135 -326q4 -4 4 0l136 326q2 5 -3 10l-14 12q-4 4 -4 11v36q0 7 6 7h250q6 0 6 -7v-36q0 -7 -4 -11l-49 -39q-6 -6 -6 -8l-223 -538v-2v-7v-714q0 -5 4 -9l14 -12q4 -4 4 -8v-37q0 -6 -6 -6h-16 h-193h-16q-6 0 -6 4v2v21v16q0 4 4 8l14 12q4 4 4 9v714v7v2l-223 538q0 2 -6 8l-49 39q-5 5 -5 11z" />
<glyph unicode="Z" horiz-adv-x="829" d="M61 6l433 1231q6 6 -5 6h-317q-7 0 -10 -6l-10 -14q-4 -4 -11 -4h-35q-6 0 -6 6v202q0 7 6 7h656q8 0 4 -7l-432 -1230q0 -7 4 -7h358q8 0 11 7l10 14q4 4 10 4h35q6 0 6 -6v-203q0 -6 -6 -6h-696q-5 0 -5 6z" />
<glyph unicode="[" horiz-adv-x="489" d="M41 -229v1892q0 6 6 6h395q7 0 7 -6v-178q0 -6 -7 -6h-211v-1524h211q7 0 7 -6v-178q0 -7 -7 -7h-395q-6 0 -6 7z" />
<glyph unicode="\" horiz-adv-x="1093" d="M0 1430q-4 4 4 4h211q4 0 8 -4l877 -1424q0 -6 -4 -6h-211q-8 0 -11 6z" />
<glyph unicode="]" horiz-adv-x="489" d="M41 -51q0 6 6 6h211v1524h-211q-6 0 -6 6v178q0 6 6 6h395q7 0 7 -6v-1892q0 -7 -7 -7h-395q-6 0 -6 7v178z" />
<glyph unicode="_" horiz-adv-x="987" d="M0 -23q0 7 6 7h975q6 0 6 -7v-180q0 -6 -6 -6h-975q-6 0 -6 6v180z" />
<glyph unicode="a" horiz-adv-x="888" d="M39 6v37q0 6 4 10l31 23l6 10l268 1131q0 6 6 6h181q5 0 8 -6l266 -1131l6 -10l31 -23q4 -4 4 -10v-37q0 -6 -6 -6h-252q-6 0 -6 6v37q0 6 4 10l26 23q2 2 2 10l-26 131q0 6 -6 6h-283q-6 0 -6 -6l-27 -131q0 -6 4 -10l25 -23q4 -4 4 -10v-37q0 -6 -6 -6h-252q-6 0 -6 6z M330 387q0 -6 6 -6h217q6 0 6 6l-113 520q0 2 -2 2l-2 -2z" />
<glyph unicode="b" horiz-adv-x="845" d="M92 6v37q0 4 4 8l15 12q6 3 6 5v1077q0 11 -6 14l-15 10q-4 4 -4 11v37q0 6 6 6h400q172 0 250 -144q30 -65 36 -143v-105q0 -30 -8 -61q-15 -75 -53 -125q-3 -3 0 -10q38 -50 53 -125q8 -31 8 -61v-183q-3 -70 -30 -129q-61 -129 -219 -137h-437q-6 0 -6 6zM307 197 q0 -7 6 -7h207q45 0 64 27q6 8 10 29v217q-3 27 -12 47q-29 47 -84 47h-185q-6 0 -6 -6v-354zM307 741q0 -6 6 -6h185q58 0 84 47q9 21 12 49v105q-3 27 -12 47q-27 49 -84 49h-185q-6 0 -6 -6v-285z" />
<glyph unicode="c" horiz-adv-x="800" d="M72 262v699q2 18 4 32t11 44.5t20.5 54t33.5 52.5t50 48t71.5 32t95.5 13h95q75 0 132 -27t85 -62t45 -80t20.5 -70.5t3.5 -43.5v-131q0 -6 -6 -6h-184h-19q-6 0 -6 6v37q0 7 6 10l15 11q4 4 4 10v59q-3 27 -12 47q-28 50 -84 50h-95q-56 0 -84 -50q-9 -20 -12 -47v-678 q3 -28 12 -49q26 -47 84 -47h95q58 0 84 47q9 21 12 49v125q0 9 -4 13l-17 28q-4 4 -4 13v47q0 4 6 4l19 -10l184 -93q6 0 6 -8v-125v-12q-2 -26 -8.5 -53.5t-26 -68.5t-48.5 -71.5t-82 -52.5t-121 -22h-95q-52 0 -95.5 13t-71.5 32t-50 48t-33.5 52.5t-20.5 54t-11 44.5 t-4 32z" />
<glyph unicode="d" horiz-adv-x="856" d="M92 6v37q0 4 4 8l15 12q6 3 6 9v1077q0 7 -6 10l-15 10q-4 4 -4 11v37q0 6 6 6h396h12q73 -2 127.5 -29t82 -62t44.5 -79t20.5 -69.5t3.5 -43.5v-657q0 -18 -3.5 -43.5t-20.5 -70.5t-45 -80t-85 -62t-132 -27h-400q-6 0 -6 6zM307 197q0 -7 6 -7h185q57 0 84 48 q9 21 12 49v649q-3 27 -12 47q-27 49 -84 49h-185q-6 0 -6 -6v-829z" />
<glyph unicode="e" horiz-adv-x="866" d="M92 6v37q0 4 4 8l15 12q6 3 6 9v1077q0 7 -6 10l-15 10q-4 4 -4 11v37q0 6 6 6h680q6 0 6 -6v-203q0 -6 -6 -6h-35q-6 0 -10 4l-10 14q-3 6 -10 6h-400q-6 0 -6 -6v-283q0 -6 6 -6h279q7 0 10 6l10 15q4 4 11 4h36q7 0 7 -6v-213q0 -6 -7 -6h-36q-7 0 -11 4l-10 14 q-4 4 -10 4h-279q-6 0 -6 -6v-356q0 -7 6 -7h400q7 0 10 7l10 14q4 4 10 4h35q6 0 6 -6v-203q0 -6 -6 -6h-680q-6 0 -6 6z" />
<glyph unicode="f" horiz-adv-x="845" d="M92 6v37q0 4 4 8l15 12q6 3 6 9v1077q0 7 -6 10l-15 10q-4 4 -4 11v37q0 6 6 6h680q6 0 6 -6v-203q0 -6 -6 -6h-35q-6 0 -10 4l-10 14q-3 6 -10 6h-400q-6 0 -6 -6v-283q0 -6 6 -6h279q7 0 10 6l10 15q4 4 11 4h36q7 0 7 -6v-213q0 -6 -7 -6h-36q-7 0 -11 4l-10 14 q-4 4 -10 4h-279q-6 0 -6 -6v-481q0 -5 4 -9l15 -12q6 -3 6 -8v-37q0 -6 -6 -6h-228q-6 0 -6 6z" />
<glyph unicode="g" d="M72 270v684q0 11 2 27t9 44t18.5 55t33.5 56.5t50.5 51t73.5 35.5t99 14h97q64 0 114.5 -18.5t80 -49.5t49.5 -63.5t28 -68t11 -54.5t3 -31v-127q0 -6 -6 -6h-203q-6 0 -6 6v37q0 4 4 8l15 13q4 4 4 8v59q-3 27 -12 47q-28 50 -82 50h-97q-56 0 -84 -50q-9 -20 -12 -47 v-678q3 -28 12 -49q26 -47 84 -47h97q56 0 82 47q9 21 12 49v281q0 6 -6 6h-111q-8 0 -8 6l-84 166q-3 6 4 6h391q6 0 6 -6v-725q0 -6 -6 -6h-35q-8 0 -8 6l-30 51q-3 6 -7 2q-73 -73 -200 -73h-97q-76 0 -133.5 28t-85 64t-44.5 82t-20 70t-3 40z" />
<glyph unicode="h" horiz-adv-x="901" d="M92 6v37q0 6 4 10l15 10q4 4 4 11v1077q0 4 -4 8l-15 12q-4 4 -4 9v37q0 6 6 6h226q6 0 6 -6v-37q0 -5 -4 -9l-15 -12q-4 -4 -4 -8v-408q0 -6 6 -6h275q6 0 6 6v408q0 5 -6 8l-15 12q-4 4 -4 9v37q0 6 6 6h228q6 0 6 -6v-37q0 -6 -6 -9l-15 -12q-4 -4 -4 -8v-1077 q0 -7 4 -11l15 -10q6 -3 6 -10v-37q0 -6 -6 -6h-228q-6 0 -6 6v37q0 6 4 10l15 10q6 3 6 11v479q0 6 -6 6h-275q-6 0 -6 -6v-479q0 -7 4 -11l15 -10q4 -4 4 -10v-37q0 -6 -6 -6h-226q-6 0 -6 6z" />
<glyph unicode="i" horiz-adv-x="423" d="M92 6v37q0 6 4 10l15 10q6 3 6 11v1075q0 7 -6 10l-15 10q-4 4 -4 11v37q0 6 6 6h228q6 0 6 -6v-37q0 -8 -6 -11l-15 -10q-4 -4 -4 -10v-1075q0 -7 4 -11l15 -10q6 -3 6 -10v-37q0 -6 -6 -6h-228q-6 0 -6 6z" />
<glyph unicode="j" horiz-adv-x="823" d="M51 272v357q0 7 6 10l203 100q6 3 6 -2v-49q0 -6 -4 -10l-16 -29q-1 -2 -2 -5l-1.5 -4.5t-0.5 -2.5v-365q3 -28 12 -49q26 -47 84 -47h92q58 0 84 47q9 21 12 49v877q0 6 -4 10l-14 10q-6 3 -6 11v37q0 6 6 6h227q6 0 6 -6v-37q0 -7 -4 -11l-14 -10q-6 -3 -6 -10v-879 q0 -9 -1.5 -23.5t-8 -43.5t-17 -56t-32.5 -57t-51 -52.5t-75 -37t-102 -14.5h-92q-182 0 -252 143q-32 60 -35 143z" />
<glyph unicode="k" horiz-adv-x="880" d="M92 6v37q0 6 4 10l15 10q6 3 6 11v1075q0 7 -6 10l-15 10q-4 4 -4 11v37q0 6 6 6h228q6 0 6 -6v-37q0 -8 -6 -11l-15 -10q-4 -4 -4 -10v-412q0 -5 1 -5t1 5l273 418q3 5 -2 10l-5 4q-4 4 -4 11v37q0 6 7 6h235q6 0 6 -6v-37q0 -7 -4 -11q-8 -5 -29 -22.5t-26 -20.5 q-6 -6 -6 -8l-238 -381q-2 -2 -2 -12l289 -641q0 -4 6 -10l27 -21q4 -4 4 -10v-37q0 -6 -6 -6h-236q-6 0 -6 6v37q0 6 4 10l14 15q5 5 2 8l-215 436q0 6 -4 2l-84 -141q0 -3 -1 -6.5t-1 -6.5v-286q0 -7 4 -11l15 -10q6 -3 6 -10v-37q0 -6 -6 -6h-228q-6 0 -6 6z" />
<glyph unicode="l" horiz-adv-x="856" d="M92 6v37q0 6 4 10l15 10q6 3 6 11v1075q0 7 -6 10l-15 10q-4 4 -4 11v37q0 6 6 6h228q6 0 6 -6v-37q0 -8 -6 -11l-15 -10q-4 -4 -4 -10v-952q0 -7 6 -7h400q7 0 10 7l10 14q4 4 10 4h35q6 0 6 -6v-203q0 -6 -6 -6h-680q-6 0 -6 6z" />
<glyph unicode="m" horiz-adv-x="1091" d="M92 6v37q0 6 4 10l15 10q6 3 6 11v1075q0 7 -6 10l-15 10q-4 4 -4 11v37q0 6 6 6h203q5 0 8 -6l234 -527q3 -3 6 0l233 527q3 6 9 6h202q6 0 6 -6v-37q0 -7 -4 -11l-14 -10q-4 -4 -4 -10v-1075q0 -7 4 -11l14 -10q4 -4 4 -10v-37q0 -6 -6 -6h-225q-6 0 -6 6v37q0 6 4 10 l14 10q4 4 4 11v694q0 2 -2 0l-233 -526q-3 -3 -6 0l-234 526q-2 2 -2 0v-694q0 -7 4 -11l15 -10q6 -3 6 -10v-37q0 -6 -6 -6h-228q-6 0 -6 6z" />
<glyph unicode="n" horiz-adv-x="997" d="M92 6v37q0 4 4 8l15 12q6 3 6 9v1077q0 7 -6 10l-15 10q-4 4 -4 11v37q0 6 6 6h203q5 0 8 -6l379 -764h2v696q0 7 -6 10l-14 10q-4 4 -4 11v37q0 6 6 6h227q6 0 6 -6v-37q0 -8 -6 -11l-14 -10q-4 -4 -4 -10v-1077q0 -5 4 -9l14 -12q6 -3 6 -8v-37q0 -6 -6 -6h-203 q-8 0 -8 6l-379 803q-2 2 -2 0v-737q0 -5 4 -9l15 -12q6 -3 6 -8v-37q0 -6 -6 -6h-228q-6 0 -6 6z" />
<glyph unicode="o" d="M72 268v686q0 11 2 27t9 44t18.5 55t33.5 56.5t50.5 51t73.5 35.5t99 14h97q54 0 99 -14t73.5 -35.5t50.5 -51t33.5 -56.5t18.5 -55t9 -44t2 -27v-686q0 -11 -2 -27t-9 -44t-18.5 -55t-33.5 -56t-50.5 -50.5t-73.5 -35.5t-99 -14h-97q-54 0 -99 14t-73.5 35.5t-50.5 50.5 t-33.5 56t-18.5 55t-9 44t-2 27zM262 272q3 -28 12 -49q26 -47 84 -47h97q56 0 82 47q9 21 12 49v678q-3 27 -12 47q-28 50 -82 50h-97q-56 0 -84 -50q-9 -20 -12 -47v-678z" />
<glyph unicode="p" horiz-adv-x="825" d="M92 6v37q0 4 4 8l15 12q6 3 6 9v1077q0 7 -6 10l-15 10q-4 4 -4 11v37q0 6 6 6h400q172 0 250 -144q30 -65 36 -143v-363q-6 -78 -36 -143q-77 -143 -250 -143h-185q-6 0 -6 -6v-209q0 -5 4 -9l15 -12q6 -3 6 -8v-37q0 -6 -6 -6h-228q-6 0 -6 6zM307 483q0 -6 6 -6h185 q58 0 84 47q9 21 12 49v363q-3 27 -12 47q-27 49 -84 49h-185q-6 0 -6 -6v-543z" />
<glyph unicode="q" d="M72 268v686q0 11 2 27t9 44t18.5 55t33.5 56.5t50.5 51t73.5 35.5t99 14h97q54 0 99 -14t73.5 -35.5t50.5 -51t33.5 -56.5t18.5 -55t9 -44t2 -27v-686q0 -18 -5 -44.5t-19 -68t-48 -81t-83 -62.5q-6 -3 0 -6q24 -14 44.5 -19t47.5 3.5t55 34.5q6 6 6 -2v-199q0 -4 -6 -10 q-37 -20 -69 -20q-2 -1 -3 -1q-31 0 -54 14q-24 14 -46 34.5t-43 40.5t-43.5 34t-51 12.5t-61.5 -22.5q-4 -4 -4 2v72q0 6 -6 6q-73 2 -128 29t-82.5 62t-44.5 78.5t-21 69t-4 43.5zM262 272q3 -28 12 -49q26 -47 84 -47h97q56 0 82 47q9 21 12 49v678q-3 27 -12 47 q-28 50 -82 50h-97q-56 0 -84 -50q-9 -20 -12 -47v-678z" />
<glyph unicode="r" horiz-adv-x="839" d="M72 6v37q0 4 4 8l14 12q6 3 6 15v1077q-2 2 -6 4l-14 10q-4 4 -4 11v37q0 6 6 6h436q158 -8 219 -138q28 -61 31 -129v-303q0 -30 -8 -61q-15 -74 -54 -125q-4 -4 0 -8q37 -49 54 -119q8 -24 8 -55v-213q0 -6 6 -9l14 -12q4 -4 4 -8v-37q0 -6 -6 -6h-202q-7 0 -7 6v279 q-3 27 -12 47q-27 49 -84 49h-94h-90q-6 0 -6 -6v-303q0 -5 4 -9l14 -12q6 -3 6 -8v-37q0 -6 -6 -6h-227q-6 0 -6 6zM287 565q0 -6 6 -6h90h94q58 0 84 47q9 21 12 47v324q-4 19 -10 27q-20 28 -63 28h-207q-6 0 -6 -6v-461z" />
<glyph unicode="s" horiz-adv-x="792" d="M61 272v117q0 5 7 8l184 92l18 11q6 0 6 -4v-47q0 -3 -1 -6.5t-1 -6.5l-18 -28q-4 -4 -4 -11v-125q3 -28 12 -49q26 -47 84 -47h96q56 0 82 47q10 24 13 49v140q0 29 -33 51l-352 209q-31 17 -51.5 40t-28.5 45.5t-10.5 36t-2.5 25.5v131q3 85 35 144q70 143 252 143h96 q63 0 113 -18t79.5 -48t50 -62t29 -66.5t12 -55t3.5 -33.5v-32q0 -8 -6 -11l-186 -92l-19 -8q-3 1 -4 4v47q0 8 2 10l19 29q2 2 2 12v37q-3 24 -13 47q-28 50 -82 50h-96q-56 0 -84 -50q-9 -20 -12 -47v-88q8 -38 39 -59l348 -205q31 -17 51.5 -40t28 -45.5t10 -36 t2.5 -25.5v-179q-6 -76 -37 -143q-77 -143 -250 -143h-96q-182 0 -252 143q-32 60 -35 143z" />
<glyph unicode="t" horiz-adv-x="772" d="M51 1014v18v185q0 6 6 6h234h190h234q6 0 6 -6v-185v-18q0 -6 -6 -6h-37q-6 0 -10 4l-11 14q-3 6 -10 6h-160q-6 0 -6 -6v-954q0 -5 4 -9l15 -12q6 -3 6 -8v-37q0 -6 -6 -6h-19h-190h-19q-6 0 -6 6v37q0 4 4 8l15 12q6 3 6 9v954q0 6 -6 6h-162q-5 0 -8 -6l-13 -14 q-4 -4 -8 -4h-37q-6 0 -6 6z" />
<glyph unicode="u" horiz-adv-x="860" d="M72 1180v37q0 6 6 6h227q6 0 6 -6v-37q0 -8 -6 -11l-14 -10q-4 -4 -4 -10v-877q3 -28 12 -49q26 -47 84 -47h94q58 0 84 47q9 21 12 49v877q0 6 -4 10l-14 10q-6 3 -6 11v37q0 6 6 6h227q6 0 6 -6v-37q0 -7 -4 -11l-14 -10q-6 -3 -6 -10v-879q0 -16 -3 -40t-20 -70 t-45 -82t-85.5 -64t-133.5 -28h-94q-55 0 -100 14t-74 35.5t-51 50.5t-33.5 56t-18.5 55t-8.5 44t-1.5 27v881q0 7 -6 10l-14 10q-4 4 -4 11z" />
<glyph unicode="v" horiz-adv-x="847" d="M18 1180v37q0 6 7 6h202q6 0 9 -6l188 -797h2l188 797q0 6 9 6h200q6 0 6 -6v-37q0 -7 -4 -11l-30 -22q-4 -4 -4 -10l-269 -1131q-3 -6 -8 -6h-178q-8 0 -8 6l-269 1131q0 2 -6 8l-30 24q-5 5 -5 11z" />
<glyph unicode="w" horiz-adv-x="1280" d="M18 1180v37q0 6 7 6h251q7 0 7 -6v-37q0 -7 -4 -11l-25 -22q-4 -4 -4 -10l168 -705h2l121 479v13l-52 215q0 4 -6 10l-26 20q-4 4 -4 11v37q0 6 6 6h248q6 0 6 -6v-37q0 -7 -4 -11l-25 -22q-6 -6 -2 -10l172 -713q0 -4 1 -4t1 4l174 713q0 6 -4 10l-22 22q-5 5 -5 11v37 q0 6 7 6h249q7 0 7 -6v-37q0 -8 -7 -11l-28 -22q-6 -3 -6 -10l-269 -1131q-3 -6 -8 -6h-178q-5 0 -8 6l-117 496h-2l-117 -496q-3 -6 -8 -6h-178q-8 0 -8 6l-269 1131q0 2 -6 8l-30 24q-5 5 -5 11z" />
<glyph unicode="x" horiz-adv-x="1001" d="M59 6v37q0 4 4 8l50 41q6 6 6 8l284 566q3 3 0 10l-219 446q0 2 -6 8l-49 39q-4 4 -4 11v37q0 6 6 6h250q6 0 6 -6v-37q0 -7 -4 -11l-14 -12q-2 -2 -2 -10l133 -277q4 -12 4 0l137 277q0 8 -2 10l-14 12q-4 4 -4 11v37q0 6 6 6h250q6 0 6 -6v-37q0 -7 -4 -11l-50 -39 q-6 -6 -6 -8l-223 -446v-10l285 -566l6 -8l49 -41q4 -4 4 -8v-37q0 -6 -6 -6h-250q-6 0 -6 6v37q0 6 4 10l14 13q5 5 2 10l-198 389q0 4 -4 0l-199 -389q0 -8 2 -10l14 -13q5 -5 5 -10v-37q0 -6 -7 -6h-249q-7 0 -7 6z" />
<glyph unicode="y" horiz-adv-x="794" d="M18 1180v37q0 6 7 6h249q7 0 7 -6v-37q0 -6 -5 -11l-14 -12q-2 -2 -2 -10l135 -326q4 -4 4 0l136 326q2 5 -3 10l-14 12q-4 4 -4 11v37q0 6 6 6h250q6 0 6 -6v-37q0 -7 -4 -11l-49 -39q-6 -6 -6 -8l-223 -538v-2v-7v-503q0 -5 4 -9l14 -10q4 -4 4 -10v-16v-21q0 -6 -6 -6 h-225q-6 0 -6 6v21v2v14q0 6 4 10l14 10q4 4 4 9v503v7v2l-223 538q0 2 -6 8l-49 39q-5 5 -5 11z" />
<glyph unicode="z" horiz-adv-x="829" d="M61 6l433 1020q6 6 -5 6h-317q-7 0 -10 -6l-10 -14q-4 -4 -11 -4h-35q-6 0 -6 6v203q0 6 6 6h656q7 0 4 -6l-416 -1020q-7 -7 4 -7h342q8 0 11 7l10 14q4 4 10 4h35q6 0 6 -6v-203q0 -6 -6 -6h-696q-5 0 -5 6z" />
<glyph unicode="|" horiz-adv-x="354" d="M82 -117v1655q0 6 6 6h178q6 0 6 -6v-1655q0 -6 -6 -6h-178q-6 0 -6 6z" />
<glyph unicode="&#xad;" horiz-adv-x="663" d="M61 682v180q0 6 7 6h528q6 0 6 -6v-180q0 -6 -6 -6h-528q-7 0 -7 6z" />
<glyph unicode="&#x2000;" horiz-adv-x="834" />
<glyph unicode="&#x2001;" horiz-adv-x="1669" />
<glyph unicode="&#x2002;" horiz-adv-x="834" />
<glyph unicode="&#x2003;" horiz-adv-x="1669" />
<glyph unicode="&#x2004;" horiz-adv-x="556" />
<glyph unicode="&#x2005;" horiz-adv-x="417" />
<glyph unicode="&#x2006;" horiz-adv-x="278" />
<glyph unicode="&#x2007;" horiz-adv-x="278" />
<glyph unicode="&#x2008;" horiz-adv-x="208" />
<glyph unicode="&#x2009;" horiz-adv-x="333" />
<glyph unicode="&#x200a;" horiz-adv-x="92" />
<glyph unicode="&#x2010;" horiz-adv-x="663" d="M61 682v180q0 6 7 6h528q6 0 6 -6v-180q0 -6 -6 -6h-528q-7 0 -7 6z" />
<glyph unicode="&#x2011;" horiz-adv-x="663" d="M61 682v180q0 6 7 6h528q6 0 6 -6v-180q0 -6 -6 -6h-528q-7 0 -7 6z" />
<glyph unicode="&#x2012;" horiz-adv-x="663" d="M61 682v180q0 6 7 6h528q6 0 6 -6v-180q0 -6 -6 -6h-528q-7 0 -7 6z" />
<glyph unicode="&#x2013;" d="M0 682v180q0 6 6 6h801q6 0 6 -6v-180q0 -6 -6 -6h-801q-6 0 -6 6z" />
<glyph unicode="&#x2014;" horiz-adv-x="987" d="M0 682v180q0 6 6 6h975q6 0 6 -6v-180q0 -6 -6 -6h-975q-6 0 -6 6z" />
<glyph unicode="&#x2018;" horiz-adv-x="190" d="M0 1178v178l4 12l59 57q3 7 11 7h110q6 0 6 -7v-247q0 -7 -6 -7h-178q-6 0 -6 7z" />
<glyph unicode="&#x2019;" horiz-adv-x="190" d="M0 1178v247q0 7 6 7h178q6 0 6 -7v-180q0 -6 -4 -10l-59 -59q-5 -5 -10 -5h-111q-6 0 -6 7z" />
<glyph unicode="&#x201c;" horiz-adv-x="415" d="M0 1178v178l4 12l59 57q3 7 11 7h110q6 0 6 -7v-247q0 -7 -6 -7h-178q-6 0 -6 7zM225 1178v178l4 12l60 57q3 7 10 7h111q6 0 6 -7v-247q0 -7 -6 -7h-179q-6 0 -6 7z" />
<glyph unicode="&#x201d;" horiz-adv-x="415" d="M0 1178v247q0 7 6 7h178q6 0 6 -7v-180q0 -6 -4 -10l-59 -59q-5 -5 -10 -5h-111q-6 0 -6 7zM225 1178v247q0 7 6 7h179q6 0 6 -7v-180q0 -6 -4 -10l-60 -59q-5 -5 -10 -5h-111q-6 0 -6 7z" />
<glyph unicode="&#x202f;" horiz-adv-x="333" />
<glyph unicode="&#x205f;" horiz-adv-x="417" />
<glyph unicode="&#x20ac;" horiz-adv-x="751" d="M0 481v166q0 6 6 6h72q6 0 6 6v56v55q0 6 -6 6h-72q-6 0 -6 6v166q0 6 6 6h72q6 0 6 7v73v131q0 19 4.5 46.5t22.5 70.5t47 78t84.5 60.5t128.5 25.5h96q63 0 113 -18t79.5 -48t50 -62t29 -66.5t12 -55t3.5 -33.5v-28v-95q0 -6 -6 -6h-185h-18q-6 0 -6 6v37q0 6 4 10 l14 11q6 3 6 10v35v16q-3 27 -12 47q-27 49 -84 49h-96q-55 0 -82 -49q-10 -23 -13 -47v-125v-73q0 -7 7 -7h198q7 0 11 4l10 15q3 6 10 6h37q6 0 6 -6v-215q0 -6 -6 -6h-37q-7 0 -10 6l-10 14q-4 4 -11 4h-198q-7 0 -7 -6v-111q0 -6 7 -6h198q8 0 11 6l10 15q4 4 10 4h37 q6 0 6 -6v-215q0 -6 -6 -6h-37q-4 0 -10 6l-10 14q-4 4 -11 4h-198q-7 0 -7 -6v-74v-125q3 -25 13 -49q26 -47 82 -47h96q58 0 84 47q9 21 12 49v4v37q0 5 -6 8l-14 13q-4 4 -4 8v37q0 6 6 6h18h185q6 0 6 -6v-94v-17q0 -17 -4 -43t-21.5 -70.5t-46 -80t-85 -62 t-130.5 -26.5h-96q-73 0 -128.5 25.5t-84.5 60t-47 78t-22.5 70.5t-4.5 46v131v74q0 6 -6 6h-72q-6 0 -6 6z" />
<glyph unicode="&#x25fc;" horiz-adv-x="1218" d="M0 0v1219h1219v-1219h-1219z" />
</font>
</defs>
</svg>
